<svg xmlns="http://www.w3.org/2000/svg" font-family="'PingFang SC', 'Microsoft YaHei', 'Noto Sans SC', sans-serif" viewBox="0 0 1080 1500"><rect width="1080" height="1500" fill="#FFF"/><text x="540" y="90" fill="#111827" font-size="48" font-weight="700" text-anchor="middle">Top 5 大型 Skill 规模</text><text x="540" y="145" fill="#6B7280" font-size="26" text-anchor="middle">文件数最多的 5 个 Skill · 全部通过审查</text><text x="80" y="265" fill="#111827" font-size="28" font-weight="600">43 · wentorai-research-plugins</text><text x="1000" y="265" fill="#059669" font-size="44" font-weight="700" text-anchor="end">478</text><rect width="900" height="80" x="80" y="285" fill="#059669" rx="12"/><text x="100" y="335" fill="#FFF" font-size="24">478 个 SKILL.md = 合法研究 API 目录（NIH / NSF / GBIF）</text><text x="80" y="430" fill="#111827" font-size="28" font-weight="600">33 · Galaxy-Dawn-claude-scholar</text><text x="1000" y="430" fill="#10B981" font-size="44" font-weight="700" text-anchor="end">327</text><rect width="615" height="80" x="80" y="450" fill="#10B981" rx="12"/><text x="100" y="500" fill="#FFF" font-size="24">最大单文件是 340KB 纯文本 time-series.md</text><text x="80" y="595" fill="#111827" font-size="28" font-weight="600">17 · DAAF · 安全标杆 ★</text><text x="1000" y="595" fill="#10B981" font-size="44" font-weight="700" text-anchor="end">319</text><rect width="600" height="80" x="80" y="615" fill="#10B981" rx="12"/><text x="100" y="665" fill="#FFF" font-size="24">14 个防御 hook + 32 条 deny rule + 凭据扫描</text><text x="80" y="760" fill="#111827" font-size="28" font-weight="600">35 · bahayonghang-academic-writing</text><text x="1000" y="760" fill="#34D399" font-size="44" font-weight="700" text-anchor="end">264</text><rect width="497" height="80" x="80" y="780" fill="#34D399" rx="12"/><text x="100" y="830" fill="#FFF" font-size="24">75 个 Python 脚本 · 仅学术 API 调用</text><text x="80" y="925" fill="#111827" font-size="28" font-weight="600">18 · jusi-aalto-stata-accounting</text><text x="1000" y="925" fill="#059669" font-size="44" font-weight="700" text-anchor="end">126</text><rect width="237" height="80" x="80" y="945" fill="#6EE7B7" rx="12"/><text x="100" y="995" fill="#374151" font-size="24">126 个 JAR 公开复现 .do 文件</text><rect width="920" height="280" x="80" y="1080" fill="#ECFDF5" stroke="#10B981" stroke-width="2" rx="16"/><text x="540" y="1140" fill="#065F46" font-size="34" font-weight="700" text-anchor="middle">关键洞察</text><text x="540" y="1190" fill="#374151" font-size="26" text-anchor="middle">规模最大 ≠ 风险最高</text><text x="120" y="1245" fill="#111827" font-size="26">★ 17-DAAF 反而是这批 Skill 中</text><text x="120" y="1280" fill="#059669" font-size="26" font-weight="700">&quot;安全意识最强&quot;的参考样板</text><text x="120" y="1325" fill="#6B7280" font-size="24">主动扫描凭据泄漏 · 防止数据外泄 · 审计每次工具调用</text><text x="540" y="1450" fill="#9CA3AF" font-size="22" text-anchor="middle">数据来源：SECURITY-SCAN-REPORT.md · 规模 Top 5</text></svg>