<svg xmlns="http://www.w3.org/2000/svg" font-family="'PingFang SC', 'Microsoft YaHei', 'Noto Sans SC', sans-serif" viewBox="0 0 1080 1700"><rect width="1080" height="1700" fill="#FFF"/><text x="540" y="90" fill="#111827" font-size="48" font-weight="700" text-anchor="middle">二轮补扫结果</text><text x="540" y="145" fill="#6B7280" font-size="28" text-anchor="middle">5 个 Skill · 38 个文件 · 800KB · 全部纯 Markdown</text><rect width="920" height="180" x="80" y="200" fill="#059669" rx="16"/><text x="540" y="270" fill="#A7F3D0" font-size="32" font-weight="600" text-anchor="middle">扫描结果</text><text x="540" y="345" fill="#FFF" font-size="64" font-weight="700" text-anchor="middle">5 / 5 · 全部 CLEAN</text><rect width="920" height="180" x="80" y="430" fill="#ECFDF5" stroke="#10B981" stroke-width="2" rx="12"/><rect width="120" height="180" x="80" y="430" fill="#10B981" rx="12"/><text x="140" y="500" fill="#FFF" font-size="34" font-weight="700" text-anchor="middle">00</text><text x="140" y="540" fill="#FFF" font-size="22" text-anchor="middle">2 文件</text><text x="220" y="475" fill="#111827" font-size="30" font-weight="700">StatsPAI 完整实证分析</text><text x="220" y="515" fill="#6B7280" font-size="24">项目自家 Skill · 工作流文档 · 零脚本</text><text x="220" y="555" fill="#6B7280" font-size="24">README + SKILL.md 共 2 个 Markdown</text><text x="220" y="590" fill="#059669" font-size="22">✓ 13 类风险扫描全部 0 命中</text><rect width="920" height="180" x="80" y="630" fill="#ECFDF5" stroke="#10B981" stroke-width="2" rx="12"/><rect width="120" height="180" x="80" y="630" fill="#10B981" rx="12"/><text x="140" y="695" fill="#FFF" font-size="32" font-weight="700" text-anchor="middle">00.1</text><text x="140" y="740" fill="#FFF" font-size="22" text-anchor="middle">10 文件</text><text x="220" y="675" fill="#111827" font-size="30" font-weight="700">Python 实证分析</text><text x="220" y="715" fill="#6B7280" font-size="24">pandas / statsmodels / pyfixest / econml 教学</text><text x="220" y="755" fill="#6B7280" font-size="24">URL 仅 brycewang-stanford / StatsPAI 与本仓库</text><text x="220" y="790" fill="#059669" font-size="22">✓ 纯文档 · 无可执行脚本面</text><rect width="920" height="180" x="80" y="830" fill="#ECFDF5" stroke="#10B981" stroke-width="2" rx="12"/><rect width="120" height="180" x="80" y="830" fill="#10B981" rx="12"/><text x="140" y="895" fill="#FFF" font-size="32" font-weight="700" text-anchor="middle">00.2</text><text x="140" y="940" fill="#FFF" font-size="22" text-anchor="middle">10 文件</text><text x="220" y="875" fill="#111827" font-size="30" font-weight="700">Stata 实证分析</text><text x="220" y="915" fill="#6B7280" font-size="24">reghdfe / csdid / synth / teffects 等 .do 片段</text><text x="220" y="955" fill="#6B7280" font-size="24">UCLA stats.idre 公开 Stata 教学链接</text><text x="220" y="990" fill="#059669" font-size="22">✓ 教学文档 · 零网络调用</text><rect width="920" height="180" x="80" y="1030" fill="#ECFDF5" stroke="#10B981" stroke-width="2" rx="12"/><rect width="120" height="180" x="80" y="1030" fill="#10B981" rx="12"/><text x="140" y="1095" fill="#FFF" font-size="32" font-weight="700" text-anchor="middle">00.3</text><text x="140" y="1140" fill="#FFF" font-size="22" text-anchor="middle">10 文件</text><text x="220" y="1075" fill="#111827" font-size="30" font-weight="700">R 实证分析</text><text x="220" y="1115" fill="#6B7280" font-size="24">fixest / did / grf / DoubleML / marginaleffects</text><text x="220" y="1155" fill="#6B7280" font-size="24">tidyverse 风格 Quarto 工作流</text><text x="220" y="1190" fill="#059669" font-size="22">✓ 纯教学文档</text><rect width="920" height="180" x="80" y="1230" fill="#ECFDF5" stroke="#10B981" stroke-width="2" rx="12"/><rect width="120" height="180" x="80" y="1230" fill="#10B981" rx="12"/><text x="140" y="1300" fill="#FFF" font-size="34" font-weight="700" text-anchor="middle">48</text><text x="140" y="1345" fill="#FFF" font-size="22" text-anchor="middle">6 文件</text><text x="220" y="1275" fill="#111827" font-size="30" font-weight="700">中文学术降 AIGC</text><text x="220" y="1315" fill="#6B7280" font-size="24">与 44-47 humanizer 系列同类 · 风格指南</text><text x="220" y="1355" fill="#6B7280" font-size="24">含明确学术诚信声明 · 禁止代写抄袭</text><text x="220" y="1390" fill="#059669" font-size="22">✓ 纯文档 · 边界清晰</text><rect width="920" height="160" x="80" y="1460" fill="#ECFDF5" stroke="#10B981" stroke-width="2" rx="16"/><text x="540" y="1515" fill="#065F46" font-size="32" font-weight="700" text-anchor="middle">结论</text><text x="540" y="1565" fill="#374151" font-size="26" text-anchor="middle">5 个补扫 Skill 风险面最低 · 可放心使用</text><text x="540" y="1600" fill="#6B7280" font-size="24" text-anchor="middle">外链仅指向 GitHub 与 UCLA 公开教学站点</text><text x="540" y="1670" fill="#9CA3AF" font-size="22" text-anchor="middle">数据来源：SECURITY-SCAN-REPORT.md · 二轮补扫 2026-04-28</text></svg>