<svg xmlns="http://www.w3.org/2000/svg" viewBox="0 0 1080 800"><rect width="1080" height="800" fill="#FFF"/><text x="540" y="60" fill="#1E293B" font-family="'PingFang SC', 'Microsoft YaHei', sans-serif" font-size="36" font-weight="700" text-anchor="middle">Python 因果推断工具生态全景</text><circle cx="540" cy="400" r="80" fill="#2563EB"/><text x="540" y="390" fill="#FFF" font-family="'PingFang SC', 'Microsoft YaHei', sans-serif" font-size="28" font-weight="700" text-anchor="middle">PyWhy</text><text x="540" y="420" fill="#FFF" font-family="'PingFang SC', 'Microsoft YaHei', sans-serif" font-size="24" text-anchor="middle">因果推断</text><line x1="540" x2="540" y1="320" y2="190" stroke="#3B82F6" stroke-width="3"/><rect width="280" height="80" x="400" y="110" fill="#3B82F6" rx="12"/><text x="540" y="148" fill="#FFF" font-family="'PingFang SC', 'Microsoft YaHei', sans-serif" font-size="28" font-weight="700" text-anchor="middle">DoWhy</text><text x="540" y="178" fill="#FFF" font-family="'PingFang SC', 'Microsoft YaHei', sans-serif" font-size="24" text-anchor="middle">端到端因果推断框架</text><line x1="620" x2="730" y1="380" y2="320" stroke="#3B82F6" stroke-width="3"/><rect width="280" height="100" x="730" y="270" fill="#60A5FA" rx="12"/><text x="870" y="308" fill="#FFF" font-family="'PingFang SC', 'Microsoft YaHei', sans-serif" font-size="28" font-weight="700" text-anchor="middle">EconML</text><text x="870" y="338" fill="#FFF" font-family="'PingFang SC', 'Microsoft YaHei', sans-serif" font-size="24" text-anchor="middle">DML / 因果森林</text><text x="870" y="358" fill="#FFF" font-family="'PingFang SC', 'Microsoft YaHei', sans-serif" font-size="24" text-anchor="middle">Meta Learners</text><line x1="600" x2="730" y1="460" y2="520" stroke="#3B82F6" stroke-width="3"/><rect width="280" height="80" x="730" y="480" fill="#93C5FD" rx="12"/><text x="870" y="518" fill="#1E293B" font-family="'PingFang SC', 'Microsoft YaHei', sans-serif" font-size="28" font-weight="700" text-anchor="middle">CausalML</text><text x="870" y="548" fill="#1E293B" font-family="'PingFang SC', 'Microsoft YaHei', sans-serif" font-size="24" text-anchor="middle">Uber开源 / 提升建模</text><line x1="480" x2="350" y1="460" y2="520" stroke="#3B82F6" stroke-width="3"/><rect width="280" height="80" x="70" y="480" fill="#93C5FD" rx="12"/><text x="210" y="518" fill="#1E293B" font-family="'PingFang SC', 'Microsoft YaHei', sans-serif" font-size="28" font-weight="700" text-anchor="middle">causal-learn</text><text x="210" y="548" fill="#1E293B" font-family="'PingFang SC', 'Microsoft YaHei', sans-serif" font-size="24" text-anchor="middle">因果发现算法</text><line x1="460" x2="350" y1="380" y2="320" stroke="#3B82F6" stroke-width="3"/><rect width="280" height="100" x="70" y="270" fill="#60A5FA" rx="12"/><text x="210" y="308" fill="#FFF" font-family="'PingFang SC', 'Microsoft YaHei', sans-serif" font-size="28" font-weight="700" text-anchor="middle">statsmodels</text><text x="210" y="338" fill="#FFF" font-family="'PingFang SC', 'Microsoft YaHei', sans-serif" font-size="24" text-anchor="middle">OLS / IV / 时间序列</text><text x="210" y="358" fill="#FFF" font-family="'PingFang SC', 'Microsoft YaHei', sans-serif" font-size="24" text-anchor="middle">经典统计推断</text><text x="540" y="640" fill="#6B7280" font-family="'PingFang SC', 'Microsoft YaHei', sans-serif" font-size="28" font-weight="700" text-anchor="middle">配套工具</text><rect width="180" height="50" x="80" y="670" fill="#F3F4F6" rx="12"/><text x="170" y="702" fill="#374151" font-family="'PingFang SC', 'Microsoft YaHei', sans-serif" font-size="24" text-anchor="middle">pandas</text><rect width="180" height="50" x="290" y="670" fill="#F3F4F6" rx="12"/><text x="380" y="702" fill="#374151" font-family="'PingFang SC', 'Microsoft YaHei', sans-serif" font-size="24" text-anchor="middle">scikit-learn</text><rect width="180" height="50" x="500" y="670" fill="#F3F4F6" rx="12"/><text x="590" y="702" fill="#374151" font-family="'PingFang SC', 'Microsoft YaHei', sans-serif" font-size="24" text-anchor="middle">linearmodels</text><rect width="180" height="50" x="710" y="670" fill="#F3F4F6" rx="12"/><text x="800" y="702" fill="#374151" font-family="'PingFang SC', 'Microsoft YaHei', sans-serif" font-size="24" text-anchor="middle">matplotlib</text><text x="540" y="770" fill="#9CA3AF" font-family="'PingFang SC', 'Microsoft YaHei', sans-serif" font-size="22" text-anchor="middle">数据来源：PyWhy 官方文档、EconML/DoWhy/CausalML GitHub 仓库</text></svg>